<svg width="123" height="125" fill="none" xmlns="http://www.w3.org/2000/svg"><ellipse cx="61.5" cy="63.433" rx="61.5" ry="61.567" fill="#fff"/><path d="m33.436 19.604 78.587 57.853-37.276 13.287-27.225 24.124-14.086-95.264Z" fill="#7C384E"/><path d="m34.943 23.32 38.67 66.699-25.158 22.388-13.512-89.086Z" fill="#BDBDBD"/><path d="M120.339 63.5c0 32.457-26.283 58.768-58.705 58.768S2.929 95.957 2.929 63.5 29.212 4.73 61.634 4.73s58.705 26.312 58.705 58.769ZM7.91 63.5c0 29.703 24.053 53.782 53.724 53.782 29.67 0 53.724-24.079 53.724-53.782 0-29.704-24.053-53.783-53.724-53.783-29.67 0-53.724 24.08-53.724 53.783Z" fill="#7C384E"/></svg>